# xmcd CD database file
#
# Track frame offsets:
#	150
#	28255
#	55902
#	76755
#	110062
#	137915
#	162357
#	194300
#
# Disc length: 2901 seconds
#
# Revision: 1
# Processed by: cddbd v1.5.2PL0 Copyright (c) Steve Scherf et al.
# Submitted via: CDex 1.70beta3
#
DISCID=6b0b5308
DTITLE=KENNY JAMES TRIO - ジャズで聴く山崎将義
DYEAR=1999
DGENRE=Jazz
TTITLE0=セロリ
TTITLE1=僕はここにいる
TTITLE2=HOME
TTITLE3=ヤサ男の夢
TTITLE4=ベンジャミン
TTITLE5=コペルニクスの卵
TTITLE6=One more time,One more chance
TTITLE7=昼休み
EXTD=YEAR: 1999
EXTT0=
EXTT1=
EXTT2=
EXTT3=
EXTT4=
EXTT5=
EXTT6=
EXTT7=
PLAYORDER=
